<?xml version="1.0" encoding="utf-8"?>
<!-- Uploaded to: SVG Repo, www.svgrepo.com, Generator: SVG Repo Mixer Tools -->
<!DOCTYPE svg PUBLIC "-//W3C//DTD SVG 1.1//EN" "http://www.w3.org/Graphics/SVG/1.1/DTD/svg11.dtd">
<svg fill="#ffffff" version="1.1" id="Layer_1" xmlns="http://www.w3.org/2000/svg" xmlns:xlink="http://www.w3.org/1999/xlink" 
	 width="800px" height="800px" viewBox="0 0 300 300" enable-background="new 0 0 300 300" xml:space="preserve">
<g>
	<path d="M137.982,151.571c-3.457,0.569-8.584,3.718-16.019,8.455c-3.983,2.548-10.013,6.396-11.157,6.655
		c-3.711-0.922-33.089-8.566-33.089-8.566c-0.903-0.26-1.831-0.074-2.592,0.427c-0.767,0.507-1.286,1.305-1.423,2.208l-7.873,50.71
		c-0.247,1.639,0.767,3.197,2.369,3.63l25.927,6.952c-1.991,2.938-2.251,6.915-0.482,10.322c2.295,4.41,7.205,7.577,12.215,7.967
		c0.291,0.544,0.638,1.095,1.027,1.632c2.857,3.854,7.799,6.377,12.69,6.52c0.421,0.742,0.935,1.479,1.528,2.195
		c2.913,3.451,7.366,5.703,11.844,6.03c0.427,0.878,0.965,1.72,1.608,2.53c2.721,3.314,6.853,5.294,11.052,5.294
		c3.668,0,6.902-1.62,8.919-4.503c1.082-1.62,6.729-11.417,6.729-11.417c1.911,0.81,3.03,1.292,3.123,1.329
		c5.325,2.085,10.793-0.692,12.964-6.426c0.377-1.014,0.631-2.01,0.767-2.993c5.609,2.084,12.079-0.872,14.28-6.352
		c0.736-1.831,0.946-3.711,0.656-5.511c0.989-0.192,38.791-10.849,38.791-10.849c1.59-0.445,2.586-2.01,2.332-3.631l-9.24-57.457
		c-0.143-0.896-0.662-1.694-1.423-2.195c-0.748-0.489-1.676-0.656-2.579-0.427l-32.1,8.188c-1.496-0.439-5.789-2.523-17.299-9.413
		c-9.66-5.802-12.413-7.28-15.189-7.28c-3.39,0-10.546,3.687-15.357,6.631C140.061,151.757,139.114,151.553,137.982,151.571z
		 M216.697,164.869l7.311,45.385l-13.854,3.878c1.392-1.473,2.511-3.241,3.253-5.239c1.861-5.442,0.328-10.935-4.106-14.429
		c-0.1-0.074-24.468-13.762-43.641-25.574c-0.514-0.315-1.101-0.482-1.701-0.482c-0.043,0-5.925,0.223-5.925,0.223
		c-0.433,0.019-0.859,0.123-1.256,0.309c-6.766,3.186-7.502,5.796-7.737,6.661c-0.624,2.258-3.531,12.865-4.96,18.412
		c-3.433,0.606-10.112-2.511-11.22-4.849c0.371-1.769,0.854-4.255,1.386-6.964c1.138-5.839,2.555-13.105,3.247-15.499
		c1.447-2.734,15.883-11.281,18.462-11.745c1.293,0.334,6.513,3.444,10.7,5.943c10.897,6.513,18.362,10.786,22.951,10.786
		C191.593,171.685,209.721,166.65,216.697,164.869z M145.608,255.119c-1.317,0-2.869-0.773-3.754-1.881
		c-0.718-0.885-0.946-1.855-0.705-2.956c0.272-1.243-0.21-2.53-1.225-3.29c-0.575-0.428-1.256-0.644-1.936-0.644
		c-0.538,0-1.083,0.136-1.571,0.408c-2.351,1.305-6.234,0.136-8.151-2.171c-0.569-0.674-1.2-1.738-0.972-2.95
		c0.241-1.305-0.346-2.635-1.472-3.34c-1.138-0.687-2.579-0.637-3.643,0.154c-0.692,0.52-1.571,0.625-2.184,0.625
		c-2.047,0-4.385-1.138-5.542-2.703c-0.939-1.273-0.648-2.227-0.55-2.535c0.414-1.343-0.093-2.802-1.243-3.612
		c-1.156-0.792-2.696-0.761-3.81,0.074c-1.751,1.317-4.447,0.507-6.148-1.317c-0.785-0.835-0.909-1.441-0.921-1.479l5.43-7.972
		c0.798-1.299,2.969-0.093,4.33,1.459c0.674,0.773,0.871,1.417,0.834,1.664c-0.197,1.521,0.699,2.981,2.152,3.488
		c1.441,0.495,3.063-0.093,3.842-1.41c2.096-3.52,3.859-5.449,5.139-5.709c2.072-0.309,3.854,0.434,5.319,1.937
		c1.015,1.051,1.447,2.152,1.423,2.771c-0.05,1.479,0.902,2.802,2.325,3.223c1.416,0.414,2.926-0.174,3.692-1.441
		c2.598-4.323,7.947-2.091,9.76,0.655c0.544,0.829,0.755,1.627,0.557,2.104c-0.594,1.397-0.143,3.024,1.101,3.908
		c1.25,0.891,2.932,0.779,4.058-0.253c1.268-1.15,4.41,0.019,5.474,1.898c0.6,1.063,0.52,2.195-0.247,3.464
		c-1.058,1.744-9.036,15.659-10.261,17.472C146.493,255.069,145.937,255.119,145.608,255.119z"/>
	<path d="M154.23,65.423c-2.425-2.097-6.036-2.097-8.461,0L48.147,149.63c-1.423,1.225-2.245,3.018-2.245,4.898v121.779
		c0,3.581,2.895,6.476,6.476,6.476h195.244c3.581,0,6.476-2.895,6.476-6.476V154.528c0-1.881-0.823-3.674-2.245-4.898L154.23,65.423
		z M241.146,269.832H58.854V157.497L150,78.881l91.146,78.616V269.832z"/>
	<path d="M287.99,131.749L158.442,20.348c-4.855-4.175-12.029-4.175-16.885,0L12.01,131.749c-5.425,4.67-6.043,12.853-1.38,18.271
		c4.67,5.43,12.853,6.036,18.271,1.379L150,47.258l121.1,104.141c2.443,2.103,5.449,3.13,8.437,3.13
		c3.648,0,7.267-1.528,9.834-4.509C294.033,144.602,293.415,136.419,287.99,131.749z"/>
</g>
</svg>